<?xml version="1.0" encoding="UTF-8" standalone="no"?>
<svg
   xmlns:dc="http://purl.org/dc/elements/1.1/"
   xmlns:cc="http://creativecommons.org/ns#"
   xmlns:rdf="http://www.w3.org/1999/02/22-rdf-syntax-ns#"
   xmlns:svg="http://www.w3.org/2000/svg"
   xmlns="http://www.w3.org/2000/svg"
   xmlns:sodipodi="http://sodipodi.sourceforge.net/DTD/sodipodi-0.dtd"
   xmlns:inkscape="http://www.inkscape.org/namespaces/inkscape"
   width="300"
   height="300"
   viewBox="0 0 302.02703 303.78763"
   version="1.1"
   id="svg9"
   sodipodi:docname="purdue-logo-square.svg"
   inkscape:version="1.0.1 (3bc2e813f5, 2020-09-07)">
  <metadata
     id="metadata15">
    <rdf:RDF>
      <cc:Work
         rdf:about="">
        <dc:format>image/svg+xml</dc:format>
        <dc:type
           rdf:resource="http://purl.org/dc/dcmitype/StillImage" />
        <dc:title></dc:title>
      </cc:Work>
    </rdf:RDF>
  </metadata>
  <defs
     id="defs13" />
  <sodipodi:namedview
     pagecolor="#ffffff"
     bordercolor="#666666"
     borderopacity="1"
     objecttolerance="10"
     gridtolerance="10"
     guidetolerance="10"
     inkscape:pageopacity="0"
     inkscape:pageshadow="2"
     inkscape:window-width="2284"
     inkscape:window-height="1597"
     id="namedview11"
     showgrid="false"
     inkscape:pagecheckerboard="false"
     inkscape:zoom="4.1047297"
     inkscape:cx="148"
     inkscape:cy="157.16385"
     inkscape:window-x="787"
     inkscape:window-y="1531"
     inkscape:window-maximized="0"
     inkscape:current-layer="svg9" />
  <g
     transform="matrix(1.8570428,0,0,1.8570428,28.484018,85.133126)"
     id="g7">
    <path
       id="Shape"
       d="m 0.3,71.1 11,-25.9 H 25.5 L 33.4,26.7 H 19.2 l 11,-25.9 h 78.1 c 6.9,0 16.5,0.8 21.1,7.7 4.6,6.9 1.1,15 -1,19.9 -5.6,13.1 -13.7,21.8 -34.9,21.8 H 78.8 L 70,71.1 Z" />
    <path
       d="m 125.4,11.2 c -2.5,-3.8 -7.9,-5.5 -17,-5.5 h -75 L 26.5,22 H 40.6 L 28.7,50 H 14.5 L 7.6,66.3 H 66.8 L 73.7,50 H 59.4 l 1.9,-4.5 h 32.2 c 20.7,0 26.3,-9 30.5,-18.9 2.3,-5.4 4.3,-11 1.4,-15.4 z M 71.3,22 H 95 c 1.7,0 2.5,0.4 2.7,0.7 0.2,0.2 0.1,0.9 -0.3,2 -1.2,2.8 -4.1,4.6 -7.6,4.6 H 68.2 Z"
       fill="#9d9795"
       id="path3" />
    <path
       d="M 108.4,8.2 H 35.1 l -4.8,11.3 h 14.1 l -14.1,33 H 16.2 L 11.4,63.8 H 65.2 L 70,52.5 H 55.6 L 59.7,43 h 33.9 c 19.4,0 24.3,-8.2 28.2,-17.4 3.9,-9.2 6,-17.4 -13.4,-17.4 z M 89.8,31.7 H 64.5 L 69.7,19.5 H 95 c 4.5,0 6.3,2.3 4.7,6.1 -1.7,3.8 -5.4,6.1 -9.9,6.1 z"
       fill="#cfb991"
       id="path5" />
  </g>
</svg>
